<svg width="30" height="30" viewBox="0 0 30 30" fill="none" xmlns="http://www.w3.org/2000/svg">
<path d="M28.5187 22.009C27.4478 22.2664 26.3483 22.3962 25.2526 22.3962C19.2572 22.3962 13.9732 18.5564 12.4027 13.0577C11.1795 8.77251 12.3692 4.28459 15.5864 1.05286L16.6343 0L15.1097 0.0622611C13.9353 0.109894 12.7709 0.280861 11.6498 0.568762C3.2545 2.73044 -1.72442 10.9713 0.551164 18.9412C2.41073 25.4527 8.66802 30 15.7683 30C17.1587 30 18.5503 29.8232 19.9047 29.4747C23.783 28.4764 27.0831 26.1366 29.1971 22.8873L30 21.654L28.5187 22.009ZM19.5804 28.3413C18.3318 28.6622 17.0492 28.8249 15.7684 28.8249C9.22582 28.8249 3.46005 24.6343 1.74593 18.6334C-0.351362 11.2892 4.2363 3.69471 11.9737 1.70455C12.532 1.56119 13.1022 1.44892 13.6791 1.36965C10.9324 4.77765 10.007 9.16098 11.2079 13.3663C12.9239 19.3755 18.7001 23.572 25.2526 23.572C25.936 23.572 26.6201 23.5256 27.2992 23.434C25.3665 25.8236 22.6725 27.5446 19.5804 28.3413ZM16.4171 7.59211L19.4529 6.77357L20.3814 3.91203L21.2443 6.79232L24.2603 7.6743L21.2239 8.49348L20.2954 11.3556L19.433 8.47529L16.4171 7.59211ZM23.0192 12.5243L25.1294 11.8686L25.6977 9.83205L26.3885 11.8339L28.5348 12.3757L26.4251 13.0303L25.8549 15.0668L25.1654 13.065L23.0192 12.5243Z" fill="black"/>
</svg>
