<svg width="17" height="17" viewBox="0 0 17 17" fill="none" xmlns="http://www.w3.org/2000/svg">
<path d="M1.49384 1.00035H4.04997C4.22595 1.00035 4.38898 1.10781 4.47681 1.28221L8.07309 8.40302C8.26293 8.7786 8.73724 8.7786 8.92708 8.40302L12.5234 1.28186C12.6115 1.10746 12.7742 1 12.9502 1L15.5063 1C15.8857 1 16.123 1.46965 15.9332 1.84523L8.92678 15.7183C8.73693 16.0939 8.26263 16.0939 8.07278 15.7183L1.06669 1.84558C0.877151 1.47 1.11415 1.00035 1.49384 1.00035Z" fill="black"/>
<path d="M12.5234 1.28221L12.1005 2.11934C12.1138 2.12392 12.1283 2.12744 12.1424 2.13061L12.2152 1.98651C12.3033 1.81211 12.466 1.70465 12.642 1.70465L15.1981 1.70465C15.5088 1.70465 15.7199 2.01963 15.6835 2.33989L15.9332 1.84523C16.123 1.46965 15.8857 1 15.5063 1L12.9502 1C12.7739 1.00035 12.6112 1.10781 12.5234 1.28221Z" fill="black"/>
<path d="M8.0731 8.40303L4.47683 1.28186C4.38869 1.10746 4.22596 1 4.04998 1H1.49385C1.15022 1 0.926782 1.38474 1.02787 1.73671C1.07718 1.71769 1.12896 1.70465 1.18566 1.70465H3.74179C3.91777 1.70465 4.0808 1.81211 4.16864 1.98651L7.76491 9.10767C7.78094 9.13516 7.92394 9.37016 8.19176 9.38953C8.47252 9.40962 8.64387 9.17497 8.65959 9.15242C8.79612 8.92729 8.93234 8.7025 9.06887 8.47737C9.03435 8.48864 8.97271 8.50203 8.91169 8.47067C8.90398 8.4668 8.89659 8.46222 8.89011 8.45764C8.6827 8.77332 8.25216 8.75817 8.0731 8.40303Z" fill="black"/>
<path d="M1.49384 1.00035H4.04997C4.22595 1.00035 4.38898 1.10781 4.47681 1.28221L8.07309 8.40302C8.26293 8.7786 8.73724 8.7786 8.92709 8.40302L12.5234 1.28186C12.6115 1.10746 12.7742 1 12.9502 1L15.5063 1C15.8857 1 16.123 1.46965 15.9332 1.84523L8.92678 15.7183C8.73693 16.0939 8.26263 16.0939 8.07278 15.7183L1.06669 1.84558C0.877151 1.47 1.11415 1.00035 1.49384 1.00035Z" stroke="black" stroke-miterlimit="10"/>
</svg>
