<svg width="30" height="26" viewBox="0 0 30 26" fill="none" xmlns="http://www.w3.org/2000/svg">
<path d="M1.00607 25.9995C0.864957 26.0004 0.725261 25.9714 0.596164 25.9144C0.467067 25.8574 0.351493 25.7737 0.257039 25.6689C0.162585 25.564 0.0913909 25.4404 0.0481361 25.3061C0.00488117 25.1717 -0.00945478 25.0298 0.00607055 24.8895L0.776071 17.8895C0.803481 17.6658 0.905673 17.4579 1.06607 17.2995L17.4261 0.939519C17.7233 0.641694 18.0763 0.405412 18.465 0.244197C18.8537 0.0829825 19.2703 0 19.6911 0C20.1118 0 20.5285 0.0829825 20.9171 0.244197C21.3058 0.405412 21.6588 0.641694 21.9561 0.939519L25.0661 4.04952C25.3639 4.34675 25.6002 4.6998 25.7614 5.08846C25.9226 5.47711 26.0056 5.89375 26.0056 6.31452C26.0056 6.73529 25.9226 7.15192 25.7614 7.54058C25.6002 7.92924 25.3639 8.28229 25.0661 8.57952L8.71607 24.9295C8.55771 25.0899 8.3498 25.1921 8.12607 25.2195L1.12607 25.9895L1.00607 25.9995ZM2.73607 18.4495L2.13607 23.8695L7.55607 23.2695L23.6561 7.16952C23.7679 7.05803 23.8567 6.92556 23.9173 6.7797C23.9778 6.63384 24.009 6.47746 24.009 6.31952C24.009 6.16158 23.9778 6.0052 23.9173 5.85934C23.8567 5.71347 23.7679 5.581 23.6561 5.46952L20.5361 2.34952C20.4246 2.23765 20.2921 2.14888 20.1463 2.08832C20.0004 2.02775 19.844 1.99657 19.6861 1.99657C19.5281 1.99657 19.3718 2.02775 19.2259 2.08832C19.08 2.14888 18.9476 2.23765 18.8361 2.34952L2.73607 18.4495Z" fill="#101820"/>
<path d="M22.0061 11.2095C21.8745 11.2103 21.744 11.1851 21.6222 11.1353C21.5003 11.0855 21.3895 11.0122 21.2961 10.9195L15.0861 4.68952C14.9928 4.59628 14.9189 4.48559 14.8684 4.36377C14.818 4.24195 14.792 4.11138 14.792 3.97952C14.792 3.84766 14.818 3.71709 14.8684 3.59527C14.9189 3.47345 14.9928 3.36276 15.0861 3.26952C15.1793 3.17628 15.29 3.10232 15.4118 3.05186C15.5337 3.0014 15.6642 2.97543 15.7961 2.97543C15.9279 2.97543 16.0585 3.0014 16.1803 3.05186C16.3022 3.10232 16.4128 3.17628 16.5061 3.26952L22.7361 9.49952C22.8298 9.59248 22.9042 9.70308 22.955 9.82494C23.0057 9.9468 23.0319 10.0775 23.0319 10.2095C23.0319 10.3415 23.0057 10.4722 22.955 10.5941C22.9042 10.716 22.8298 10.8266 22.7361 10.9195C22.6403 11.0146 22.5262 11.0894 22.4008 11.1392C22.2753 11.189 22.141 11.213 22.0061 11.2095Z" fill="#101820"/>
<path d="M15.0912 9.50317L7.306 17.2884L8.72021 18.7026L16.5055 10.9174L15.0912 9.50317Z" fill="#101820"/>
<path d="M29.0061 25.9995H13.0061C12.7409 25.9995 12.4865 25.8942 12.299 25.7066C12.1114 25.5191 12.0061 25.2647 12.0061 24.9995C12.0061 24.7343 12.1114 24.4799 12.299 24.2924C12.4865 24.1049 12.7409 23.9995 13.0061 23.9995H29.0061C29.2713 23.9995 29.5256 24.1049 29.7132 24.2924C29.9007 24.4799 30.0061 24.7343 30.0061 24.9995C30.0061 25.2647 29.9007 25.5191 29.7132 25.7066C29.5256 25.8942 29.2713 25.9995 29.0061 25.9995Z" fill="#101820"/>
</svg>
