<svg width="27" height="27" viewBox="0 0 27 27" fill="none" xmlns="http://www.w3.org/2000/svg">
<path d="M18.9 27H7.96501C5.73751 27 3.98251 25.1775 3.98251 23.0175V10.8C3.98251 10.395 4.25251 10.125 4.65751 10.125C5.06251 10.125 5.33251 10.395 5.33251 10.8V23.0175C5.33251 24.5025 6.54751 25.65 7.96501 25.65H18.9C20.385 25.65 21.5325 24.435 21.5325 23.0175V10.8C21.5325 10.395 21.8025 10.125 22.2075 10.125C22.6125 10.125 22.8825 10.395 22.8825 10.8V23.0175C22.8825 25.1775 21.06 27 18.9 27Z" fill="black"/>
<path d="M22.4775 3.3075H17.3475C17.01 1.4175 15.39 0 13.4325 0C11.475 0 9.85499 1.4175 9.5175 3.3075H4.38749C2.835 3.3075 1.62 4.5225 1.62 6.075C1.62 7.6275 2.835 8.775 4.38749 8.775H22.545C24.0975 8.775 25.3125 7.56 25.3125 6.0075C25.3125 4.455 24.03 3.3075 22.4775 3.3075ZM13.4325 1.35C14.6475 1.35 15.66 2.16 15.93 3.3075H10.8675C11.205 2.16 12.2175 1.35 13.4325 1.35ZM22.4775 7.425H4.38749C3.64499 7.425 2.97 6.8175 2.97 6.0075C2.97 5.265 3.57749 4.59 4.38749 4.59H22.545C23.2875 4.59 23.9625 5.1975 23.9625 6.0075C23.895 6.8175 23.2875 7.425 22.4775 7.425Z" fill="black"/>
<path d="M8.7075 23.6925C8.3025 23.6925 8.0325 23.4225 8.0325 23.0175V11.745C8.0325 11.34 8.3025 11.07 8.7075 11.07C9.1125 11.07 9.3825 11.34 9.3825 11.745V23.0175C9.3825 23.355 9.045 23.6925 8.7075 23.6925Z" fill="black"/>
<path d="M18.1575 23.6925C17.7525 23.6925 17.4825 23.4225 17.4825 23.0175V11.745C17.4825 11.34 17.7525 11.07 18.1575 11.07C18.5625 11.07 18.8325 11.34 18.8325 11.745V23.0175C18.8325 23.355 18.495 23.6925 18.1575 23.6925Z" fill="black"/>
<path d="M13.4325 23.6925C13.0275 23.6925 12.7575 23.4225 12.7575 23.0175V11.745C12.7575 11.34 13.0275 11.07 13.4325 11.07C13.8375 11.07 14.1075 11.34 14.1075 11.745V23.0175C14.1075 23.355 13.77 23.6925 13.4325 23.6925Z" fill="black"/>
</svg>
